<svg width="19" height="19" viewBox="0 0 19 19" fill="none" xmlns="http://www.w3.org/2000/svg">
<g clip-path="url(#clip0_50_2238)">
<path d="M12.3255 4.99886C12.3255 5.57902 12.556 6.13542 12.9662 6.54565C13.3764 6.95589 13.9328 7.18636 14.513 7.18636C15.0932 7.18636 15.6496 6.95589 16.0598 6.54565C16.47 6.13542 16.7005 5.57902 16.7005 4.99886C16.7005 4.41869 16.47 3.8623 16.0598 3.45206C15.6496 3.04182 15.0932 2.81136 14.513 2.81136C13.9328 2.81136 13.3764 3.04182 12.9662 3.45206C12.556 3.8623 12.3255 4.41869 12.3255 4.99886Z" stroke="#11213A" stroke-linecap="round" stroke-linejoin="round"/>
<path d="M7.40363 16.6094C7.49624 16.9249 7.68856 17.2019 7.95178 17.3989C8.215 17.596 8.53497 17.7025 8.86378 17.7025C9.19259 17.7025 9.51256 17.596 9.77578 17.3989C10.039 17.2019 10.2313 16.9249 10.3239 16.6094" stroke="#11213A" stroke-linecap="round" stroke-linejoin="round"/>
<path d="M8.862 2.9375V1.29688" stroke="#11213A" stroke-linecap="round" stroke-linejoin="round"/>
<path d="M14.3475 9.47156C14.4853 13.6686 15.4245 14.4219 15.4245 14.4219H2.2995C2.2995 14.4219 3.39325 13.0248 3.39325 8.40625C3.39407 7.54951 3.59598 6.70491 3.98274 5.94043C4.36949 5.17595 4.9303 4.51293 5.62003 4.00471C6.30976 3.49649 7.10916 3.15727 7.9539 3.01434C8.79864 2.8714 9.66513 2.92875 10.4837 3.18177" stroke="#11213A" stroke-linecap="round" stroke-linejoin="round"/>
</g>
<defs>
<clipPath id="clip0_50_2238">
<rect width="17.5" height="17.5" fill="white" transform="translate(0.75 0.75)"/>
</clipPath>
</defs>
</svg>
