<svg width="25" height="25" viewBox="0 0 25 25" fill="none" xmlns="http://www.w3.org/2000/svg">
<g clip-path="url(#clip0_237_799)">
<path d="M2.75 16.4082V12.6582C2.75 10.0723 3.77723 7.59239 5.60571 5.76391C7.43419 3.93543 9.91414 2.9082 12.5 2.9082C15.0859 2.9082 17.5658 3.93543 19.3943 5.76391C21.2228 7.59239 22.25 10.0723 22.25 12.6582V16.4082" stroke="currentColor" stroke-width="1.5" stroke-linecap="round" stroke-linejoin="round"/>
<path d="M23.693 21.7002C23.7647 21.9655 23.7621 22.2454 23.6855 22.5093C23.6089 22.7733 23.4612 23.0111 23.2587 23.1969C23.0561 23.3826 22.8064 23.5091 22.5368 23.5626C22.2672 23.6161 21.9881 23.5945 21.73 23.5002C18.7789 22.3713 15.6584 21.7486 12.5 21.6582C9.34161 21.7484 6.22111 22.3712 3.27001 23.5002C3.01187 23.5945 2.73278 23.6161 2.4632 23.5626C2.19362 23.5091 1.94391 23.3826 1.74135 23.1969C1.53878 23.0111 1.39114 22.7733 1.31454 22.5093C1.23795 22.2454 1.23534 21.9655 1.30701 21.7002L2.75001 16.4102C5.93008 15.5302 9.20249 15.0268 12.5 14.9102C15.7975 15.0268 19.0699 15.5302 22.25 16.4102L23.693 21.7002Z" stroke="currentColor" stroke-width="1.5" stroke-linecap="round" stroke-linejoin="round"/>
<path d="M12.5 2.9082V1.4082" stroke="currentColor" stroke-width="1.5" stroke-linecap="round" stroke-linejoin="round"/>
<path d="M9.504 8.9082C9.504 9.70385 9.82007 10.4669 10.3827 11.0295C10.9453 11.5921 11.7083 11.9082 12.504 11.9082C13.2996 11.9082 14.0627 11.5921 14.6253 11.0295C15.1879 10.4669 15.504 9.70385 15.504 8.9082C15.504 8.11255 15.1879 7.34949 14.6253 6.78688C14.0627 6.22427 13.2996 5.9082 12.504 5.9082C11.7083 5.9082 10.9453 6.22427 10.3827 6.78688C9.82007 7.34949 9.504 8.11255 9.504 8.9082Z" stroke="currentColor" stroke-width="1.5" stroke-linecap="round" stroke-linejoin="round"/>
</g>
<defs>
<clipPath id="clip0_237_799">
<rect width="24" height="24" fill="white" transform="translate(0.5 0.5)"/>
</clipPath>
</defs>
</svg>
