<svg width="25" height="25" viewBox="0 0 25 25" fill="none" xmlns="http://www.w3.org/2000/svg">
<g clip-path="url(#clip0_237_784)">
<path d="M11 13.0259C11.0005 13.2851 10.8981 13.5339 10.7153 13.7176C10.5325 13.9014 10.2842 14.0051 10.025 14.0059H2.225C2.09661 14.0056 1.96954 13.98 1.85104 13.9306C1.73254 13.8812 1.62494 13.809 1.53439 13.7179C1.44384 13.6269 1.37211 13.519 1.32332 13.4002C1.27452 13.2814 1.24961 13.1542 1.25 13.0259V2.23586C1.24974 2.10743 1.27477 1.9802 1.32368 1.86144C1.37259 1.74269 1.4444 1.63472 1.53503 1.54372C1.62566 1.45272 1.73333 1.38046 1.85189 1.33107C1.97044 1.28168 2.09757 1.25612 2.226 1.25586L10.026 1.26886C10.285 1.26992 10.5331 1.3737 10.7157 1.55743C10.8983 1.74116 11.0005 1.98982 11 2.24886V13.0259Z" stroke="currentColor" stroke-width="1.5" stroke-linecap="round" stroke-linejoin="round"/>
<path d="M23.75 7.04389C23.7481 7.30071 23.6444 7.54629 23.4616 7.72667C23.2788 7.90706 23.0318 8.00748 22.775 8.00589H14.975C14.8478 8.00681 14.7217 7.98265 14.6038 7.93479C14.4859 7.88693 14.3787 7.81631 14.2881 7.72697C14.1976 7.63762 14.1255 7.53131 14.0761 7.4141C14.0266 7.29689 14.0008 7.17109 14 7.04389V2.23088C14.0016 1.97433 14.105 1.72889 14.2874 1.54851C14.4698 1.36813 14.7164 1.26755 14.973 1.26888L22.773 1.25588C23.0301 1.25402 23.2774 1.3543 23.4606 1.53468C23.6438 1.71506 23.7479 1.9608 23.75 2.21788V7.04389Z" stroke="currentColor" stroke-width="1.5" stroke-linecap="round" stroke-linejoin="round"/>
<path d="M11 22.7909C10.9992 22.9184 10.9733 23.0445 10.9238 23.162C10.8743 23.2795 10.8021 23.3861 10.7114 23.4757C10.6206 23.5653 10.5132 23.6362 10.395 23.6843C10.2769 23.7323 10.1505 23.7567 10.023 23.7559L2.223 23.7429C1.96618 23.7439 1.71944 23.643 1.53699 23.4622C1.35455 23.2815 1.25132 23.0357 1.25 22.7789V17.9699C1.25065 17.8425 1.2764 17.7166 1.32577 17.5992C1.37513 17.4818 1.44715 17.3753 1.5377 17.2858C1.62825 17.1963 1.73556 17.1255 1.85349 17.0774C1.97142 17.0294 2.09766 17.0051 2.225 17.0059H10.025C10.2821 17.0045 10.5292 17.1053 10.712 17.2861C10.8948 17.4668 10.9984 17.7128 11 17.9699V22.7909Z" stroke="currentColor" stroke-width="1.5" stroke-linecap="round" stroke-linejoin="round"/>
<path d="M14.976 23.7559C14.8475 23.7556 14.7203 23.73 14.6017 23.6806C14.483 23.6311 14.3753 23.5588 14.2847 23.4676C14.194 23.3765 14.1222 23.2685 14.0734 23.1496C14.0245 23.0307 13.9996 22.9034 14 22.7749V11.9869C13.9996 11.8584 14.0245 11.7312 14.0733 11.6124C14.1221 11.4936 14.1938 11.3855 14.2843 11.2944C14.3749 11.2033 14.4825 11.131 14.601 11.0815C14.7195 11.0319 14.8466 11.0063 14.975 11.0059H22.775C22.9034 11.0063 23.0305 11.0319 23.149 11.0815C23.2675 11.131 23.3751 11.2033 23.4657 11.2944C23.5562 11.3855 23.6279 11.4936 23.6767 11.6124C23.7255 11.7312 23.7504 11.8584 23.75 11.9869V22.7619C23.7505 23.021 23.6483 23.2698 23.4657 23.4536C23.2832 23.6375 23.0351 23.7415 22.776 23.7429L14.976 23.7559Z" stroke="currentColor" stroke-width="1.5" stroke-linecap="round" stroke-linejoin="round"/>
</g>
<defs>
<clipPath id="clip0_237_784">
<rect width="24" height="24" fill="white" transform="translate(0.5 0.5)"/>
</clipPath>
</defs>
</svg>
