<svg width="24" height="24" viewBox="0 0 24 24" fill="none" xmlns="http://www.w3.org/2000/svg">
<g clip-path="url(#clip0_540_4021)">
<path d="M11.235 17.25C11.235 18.0379 11.3902 18.8181 11.6917 19.5461C11.9932 20.2741 12.4352 20.9355 12.9923 21.4926C13.5495 22.0498 14.2109 22.4917 14.9389 22.7933C15.6668 23.0948 16.4471 23.25 17.235 23.25C18.0229 23.25 18.8031 23.0948 19.5311 22.7933C20.259 22.4917 20.9205 22.0498 21.4776 21.4926C22.0348 20.9355 22.4767 20.2741 22.7783 19.5461C23.0798 18.8181 23.235 18.0379 23.235 17.25C23.235 16.4621 23.0798 15.6819 22.7783 14.9539C22.4767 14.2259 22.0348 13.5645 21.4776 13.0074C20.9205 12.4502 20.259 12.0083 19.5311 11.7067C18.8031 11.4052 18.0229 11.25 17.235 11.25C16.4471 11.25 15.6668 11.4052 14.9389 11.7067C14.2109 12.0083 13.5495 12.4502 12.9923 13.0074C12.4352 13.5645 11.9932 14.2259 11.6917 14.9539C11.3902 15.6819 11.235 16.4621 11.235 17.25Z" stroke="currentColor" stroke-width="1.5" stroke-linecap="round" stroke-linejoin="round"/>
<path d="M19.887 17.25H17.235V14.599" stroke="currentColor" stroke-width="1.5" stroke-linecap="round" stroke-linejoin="round"/>
<path d="M8.72297 19.007C8.49817 18.9821 8.28862 18.8812 8.12897 18.721L1.76497 12.357C1.67199 12.2641 1.59823 12.1539 1.54791 12.0325C1.49758 11.9111 1.47168 11.7809 1.47168 11.6495C1.47168 11.5181 1.49758 11.388 1.54791 11.2666C1.59823 11.1452 1.67199 11.0349 1.76497 10.942L3.17897 9.52802C3.36649 9.34055 3.6208 9.23523 3.88597 9.23523C4.15113 9.23523 4.40544 9.34055 4.59297 9.52802L9.24997 14.185" stroke="currentColor" stroke-width="1.5" stroke-linecap="round" stroke-linejoin="round"/>
<path d="M14.257 9.29294L9.54303 4.57794C9.35556 4.39041 9.25024 4.1361 9.25024 3.87094C9.25024 3.60578 9.35556 3.35147 9.54303 3.16394L10.957 1.74994C11.1446 1.56247 11.3989 1.45715 11.664 1.45715C11.9292 1.45715 12.1835 1.56247 12.371 1.74994L18.735 8.11394C18.8955 8.27314 18.9967 8.48235 19.022 8.70694" stroke="currentColor" stroke-width="1.5" stroke-linecap="round" stroke-linejoin="round"/>
<path d="M13.0785 2.45711L14.4927 1.04289C14.5856 0.950035 14.6958 0.876375 14.8171 0.82612C14.9385 0.775866 15.0685 0.75 15.1998 0.75C15.3311 0.75 15.4612 0.775866 15.5825 0.82612C15.7038 0.876375 15.8141 0.950035 15.9069 1.04289L19.4425 4.57843C19.63 4.76596 19.7353 5.02032 19.7353 5.28553C19.7353 5.55075 19.63 5.8051 19.4425 5.99264L18.0282 7.40685L13.0785 2.45711Z" stroke="currentColor" stroke-width="1.5" stroke-linecap="round" stroke-linejoin="round"/>
<path d="M1.0584 14.4788L2.47261 13.0646L7.42236 18.0143L6.00814 19.4285C5.82061 19.6161 5.56625 19.7214 5.30104 19.7214C5.03582 19.7214 4.78147 19.6161 4.59393 19.4285L1.0584 15.893C0.965538 15.8001 0.891878 15.6899 0.841623 15.5686C0.791369 15.4473 0.765503 15.3172 0.765503 15.1859C0.765503 15.0546 0.791369 14.9245 0.841623 14.8032C0.891878 14.6819 0.965538 14.5716 1.0584 14.4788Z" stroke="currentColor" stroke-width="1.5" stroke-linecap="round" stroke-linejoin="round"/>
<path d="M7.77502 12.71L12.725 7.76001" stroke="currentColor" stroke-width="1.5" stroke-linecap="round" stroke-linejoin="round"/>
</g>
<defs>
<clipPath id="clip0_540_4021">
<rect width="24" height="24" fill="white"/>
</clipPath>
</defs>
</svg>
