<svg width="10" height="10" viewBox="0 0 10 10" fill="none" xmlns="http://www.w3.org/2000/svg">
<path d="M5 10C6.32608 10 7.59785 9.47322 8.53553 8.53553C9.47322 7.59785 10 6.32608 10 5C10 3.67392 9.47322 2.40215 8.53553 1.46447C7.59785 0.526784 6.32608 0 5 0C3.67392 0 2.40215 0.526784 1.46447 1.46447C0.526784 2.40215 0 3.67392 0 5C0 6.32608 0.526784 7.59785 1.46447 8.53553C2.40215 9.47322 3.67392 10 5 10ZM5 2.5C5.25977 2.5 5.46875 2.70898 5.46875 2.96875V5.15625C5.46875 5.41602 5.25977 5.625 5 5.625C4.74023 5.625 4.53125 5.41602 4.53125 5.15625V2.96875C4.53125 2.70898 4.74023 2.5 5 2.5ZM4.375 6.875C4.375 6.70924 4.44085 6.55027 4.55806 6.43306C4.67527 6.31585 4.83424 6.25 5 6.25C5.16576 6.25 5.32473 6.31585 5.44194 6.43306C5.55915 6.55027 5.625 6.70924 5.625 6.875C5.625 7.04076 5.55915 7.19973 5.44194 7.31694C5.32473 7.43415 5.16576 7.5 5 7.5C4.83424 7.5 4.67527 7.43415 4.55806 7.31694C4.44085 7.19973 4.375 7.04076 4.375 6.875Z" fill="#D0B07B"/>
</svg>
