<svg width="24" height="25" viewBox="0 0 24 25" fill="none" xmlns="http://www.w3.org/2000/svg">
<path fill-rule="evenodd" clip-rule="evenodd" d="M6 2.75C4.48122 2.75 3.25 3.98122 3.25 5.5C3.25 7.01878 4.48122 8.25 6 8.25C7.51878 8.25 8.75 7.01878 8.75 5.5C8.75 3.98122 7.51878 2.75 6 2.75ZM4.75 5.5C4.75 4.80964 5.30964 4.25 6 4.25C6.69036 4.25 7.25 4.80964 7.25 5.5C7.25 6.19036 6.69036 6.75 6 6.75C5.30964 6.75 4.75 6.19036 4.75 5.5Z" fill="currentColor"/>
<path d="M12 4.75C11.5858 4.75 11.25 5.08579 11.25 5.5C11.25 5.91421 11.5858 6.25 12 6.25L20 6.25C20.4142 6.25 20.75 5.91421 20.75 5.5C20.75 5.08579 20.4142 4.75 20 4.75L12 4.75Z" fill="currentColor"/>
<path fill-rule="evenodd" clip-rule="evenodd" d="M18 9.75C16.4812 9.75 15.25 10.9812 15.25 12.5C15.25 14.0188 16.4812 15.25 18 15.25C19.5188 15.25 20.75 14.0188 20.75 12.5C20.75 10.9812 19.5188 9.75 18 9.75ZM16.75 12.5C16.75 11.8096 17.3096 11.25 18 11.25C18.6904 11.25 19.25 11.8096 19.25 12.5C19.25 13.1904 18.6904 13.75 18 13.75C17.3096 13.75 16.75 13.1904 16.75 12.5Z" fill="currentColor"/>
<path d="M4 11.75C3.58579 11.75 3.25 12.0858 3.25 12.5C3.25 12.9142 3.58579 13.25 4 13.25L12 13.25C12.4142 13.25 12.75 12.9142 12.75 12.5C12.75 12.0858 12.4142 11.75 12 11.75L4 11.75Z" fill="currentColor"/>
<path fill-rule="evenodd" clip-rule="evenodd" d="M6 16.75C4.48122 16.75 3.25 17.9812 3.25 19.5C3.25 21.0188 4.48122 22.25 6 22.25C7.51878 22.25 8.75 21.0188 8.75 19.5C8.75 17.9812 7.51878 16.75 6 16.75ZM4.75 19.5C4.75 18.8096 5.30964 18.25 6 18.25C6.69036 18.25 7.25 18.8096 7.25 19.5C7.25 20.1904 6.69036 20.75 6 20.75C5.30964 20.75 4.75 20.1904 4.75 19.5Z" fill="currentColor"/>
<path d="M12 18.75C11.5858 18.75 11.25 19.0858 11.25 19.5C11.25 19.9142 11.5858 20.25 12 20.25H20C20.4142 20.25 20.75 19.9142 20.75 19.5C20.75 19.0858 20.4142 18.75 20 18.75H12Z" fill="currentColor"/>
</svg>
