<svg width="24" height="24" viewBox="0 0 24 24" fill="none" xmlns="http://www.w3.org/2000/svg">
<path d="M16.553 18.75L18.291 12.737C18.291 12.737 20.473 13.064 20.828 11.287C20.9068 10.9696 20.9086 10.638 20.8332 10.3198C20.7578 10.0016 20.6074 9.70604 20.3946 9.45777C20.1817 9.20951 19.9126 9.01573 19.6096 8.89261C19.3067 8.76949 18.9787 8.7206 18.653 8.75001H18.524" stroke="currentColor" stroke-width="1.4" stroke-linecap="round" stroke-linejoin="round"/>
<path d="M7.4 21.086C7.14568 20.9877 6.91325 20.8401 6.71604 20.6518C6.51883 20.4635 6.3607 20.2382 6.25072 19.9887C6.14073 19.7392 6.08105 19.4704 6.07509 19.1978C6.06914 18.9252 6.11702 18.6541 6.216 18.4" stroke="currentColor" stroke-width="1.4" stroke-linecap="round" stroke-linejoin="round"/>
<path d="M10.571 3.25C10.571 3.91304 10.8344 4.54893 11.3032 5.01777C11.7721 5.48661 12.408 5.75 13.071 5.75C13.734 5.75 14.3699 5.48661 14.8388 5.01777C15.3076 4.54893 15.571 3.91304 15.571 3.25C15.571 2.58696 15.3076 1.95107 14.8388 1.48223C14.3699 1.01339 13.734 0.75 13.071 0.75C12.408 0.75 11.7721 1.01339 11.3032 1.48223C10.8344 1.95107 10.571 2.58696 10.571 3.25Z" stroke="currentColor" stroke-width="1.4" stroke-linecap="round" stroke-linejoin="round"/>
<path d="M6.964 14.548C6.27181 14.3409 5.66069 13.9246 5.21451 13.3563C4.76834 12.788 4.50896 12.0956 4.472 11.374C4.44236 10.4569 4.75699 9.56186 5.354 8.86502L7.862 5.80002C7.98857 5.6452 8.14483 5.51725 8.32158 5.4237C8.49832 5.33015 8.69199 5.27289 8.89119 5.25528C9.0904 5.23767 9.29111 5.26007 9.48152 5.32116C9.67194 5.38225 9.84822 5.48081 10 5.61102L12.929 8.12302L16.7 7.28602C16.9133 7.23857 17.1343 7.23828 17.3477 7.28516C17.5611 7.33205 17.7617 7.42499 17.9354 7.55747C18.1091 7.68996 18.2518 7.85879 18.3535 8.05217C18.4551 8.24555 18.5133 8.4588 18.524 8.67702C18.5307 9.04191 18.4088 9.39752 18.1798 9.68162C17.9507 9.96572 17.629 10.1602 17.271 10.231L13.338 11.105C12.9592 11.1892 12.566 11.1841 12.1895 11.09C11.8131 10.9959 11.4637 10.8155 11.169 10.563L9.212 8.88802L7.583 10.88C7.52987 10.9437 7.49342 11.0196 7.47693 11.1009C7.46044 11.1822 7.46443 11.2663 7.48853 11.3456C7.51264 11.425 7.5561 11.4971 7.61501 11.5555C7.67392 11.6138 7.74643 11.6566 7.826 11.68L8.773 11.964L9.573 12.244C10.3985 12.5335 11.084 13.1243 11.4921 13.8981C11.9001 14.6719 12.0004 15.5713 11.773 16.416L11.159 18.699C11.0633 19.0549 10.8332 19.3598 10.5173 19.5495C10.2013 19.7391 9.82409 19.7988 9.465 19.716C9.2772 19.6732 9.10004 19.5926 8.94426 19.4793C8.78848 19.366 8.65731 19.2223 8.55868 19.0568C8.46006 18.8913 8.39603 18.7076 8.37047 18.5167C8.34492 18.3257 8.35836 18.1316 8.41 17.946L8.81 16.48C8.89617 16.1651 8.8607 15.8293 8.71063 15.5393C8.56055 15.2494 8.30687 15.0265 8 14.915L6.964 14.548Z" stroke="currentColor" stroke-width="1.4" stroke-linecap="round" stroke-linejoin="round"/>
<path d="M8.58 15.33C8.387 15.272 8.218 15.23 8.08 15.199C7.00164 14.9832 5.88172 15.2046 4.96656 15.8144C4.05141 16.4243 3.41596 17.3727 3.2 18.451C3.0951 18.9809 3.0966 19.5264 3.20441 20.0557C3.31223 20.585 3.52421 21.0876 3.82802 21.5342C4.13184 21.9809 4.52142 22.3627 4.97413 22.6574C5.42683 22.9521 5.93361 23.1539 6.465 23.251H17.242C17.691 23.2516 18.1243 23.086 18.4585 22.7862C18.7927 22.4863 19.0041 22.0734 19.052 21.627C19.1458 21.1585 19.0749 20.6721 18.8513 20.2499C18.6277 19.8277 18.2652 19.4957 17.825 19.31C17.825 19.31 14.573 17.749 11.735 16.543" stroke="currentColor" stroke-width="1.4" stroke-linecap="round" stroke-linejoin="round"/>
</svg>
