<svg width="17" height="15" viewBox="0 0 17 15" fill="none" xmlns="http://www.w3.org/2000/svg">
<path d="M1.20825 0.46875C0.776779 0.46875 0.427002 0.818528 0.427002 1.25C0.427002 1.68147 0.776779 2.03125 1.20825 2.03125H15.7916C16.2231 2.03125 16.5728 1.68147 16.5728 1.25C16.5728 0.818528 16.2231 0.46875 15.7916 0.46875H1.20825Z" fill="currentColor"/>
<path d="M1.20825 6.71875C0.776779 6.71875 0.427002 7.06853 0.427002 7.5C0.427002 7.93147 0.776779 8.28125 1.20825 8.28125H15.7916C16.2231 8.28125 16.5728 7.93147 16.5728 7.5C16.5728 7.06853 16.2231 6.71875 15.7916 6.71875H1.20825Z" fill="currentColor"/>
<path d="M1.20825 12.9688C0.776779 12.9688 0.427002 13.3185 0.427002 13.75C0.427002 14.1815 0.776779 14.5312 1.20825 14.5312H15.7916C16.2231 14.5312 16.5728 14.1815 16.5728 13.75C16.5728 13.3185 16.2231 12.9688 15.7916 12.9688H1.20825Z" fill="currentColor"/>
</svg>
