<svg width="24" height="25" viewBox="0 0 24 25" fill="none" xmlns="http://www.w3.org/2000/svg">
<g clip-path="url(#clip0_50_915)">
<path d="M8.72671 14.2633L2.22494 8.3741C-1.30863 4.84053 3.88571 -1.94393 8.72671 3.54488C13.5677 -1.94393 18.7385 4.86408 15.2285 8.3741L8.72671 14.2633Z" stroke="currentColor" stroke-width="1.4" stroke-linecap="round" stroke-linejoin="round"/>
<path d="M4.58142 7.46961H6.59416L7.80181 5.75757L9.412 8.75364L10.6196 7.0416H12.8618" stroke="currentColor" stroke-width="1.4" stroke-linecap="round" stroke-linejoin="round"/>
<path d="M12.1295 20.1268C12.1295 20.1268 12.9957 17.9612 15.5944 17.9612C18.193 17.9612 19.0592 19.6937 19.0592 19.6937L17.3268 14.4964H16.16C15.6329 14.4964 15.2279 14.0295 15.3025 13.5077L15.3819 12.9521C15.5038 12.0986 16.2347 11.4647 17.0969 11.4647H19.3187C19.6829 11.4647 20.0083 11.6925 20.1327 12.0349L23.0907 20.1693C23.279 20.6871 23.2097 21.2637 22.904 21.7223L22.1031 22.9237C21.8249 23.341 21.3566 23.5916 20.855 23.5916H11.2633" stroke="currentColor" stroke-width="1.4" stroke-linecap="round" stroke-linejoin="round"/>
</g>
<defs>
<clipPath id="clip0_50_915">
<rect width="24" height="24" fill="white" transform="translate(0 0.498047)"/>
</clipPath>
</defs>
</svg>
