<svg width="14" height="14" viewBox="0 0 14 14" fill="none" xmlns="http://www.w3.org/2000/svg">
<g clip-path="url(#clip0_317_1077)">
<path d="M9.58105 9.32771L7.0543 11.9636C7.01497 12.0047 6.96774 12.0373 6.91544 12.0597C6.86314 12.082 6.80686 12.0935 6.74999 12.0935C6.69312 12.0935 6.63684 12.082 6.58454 12.0597C6.53224 12.0373 6.48501 12.0047 6.44568 11.9636L3.91837 9.32715" stroke="currentColor" stroke-linecap="round" stroke-linejoin="round"/>
<path d="M0.827434 5.95523C0.574188 5.50143 0.435565 4.99266 0.423606 4.47311C0.411646 3.95356 0.526712 3.43896 0.758809 2.97398C0.984966 2.5218 1.31533 2.12982 1.72268 1.83035C2.13003 1.53088 2.60271 1.33249 3.10177 1.25152C3.60082 1.17055 4.11198 1.20932 4.59312 1.36464C5.07425 1.51995 5.5116 1.78737 5.86912 2.14485L6.75 3.02292L7.63087 2.14204C7.98839 1.78456 8.42574 1.51714 8.90688 1.36183C9.38801 1.20651 9.89917 1.16774 10.3982 1.24871C10.8973 1.32968 11.37 1.52807 11.7773 1.82754C12.1847 2.12701 12.515 2.51898 12.7412 2.97117C12.9733 3.43607 13.0885 3.95058 13.0769 4.47008C13.0652 4.98958 12.927 5.4984 12.6742 5.95242" stroke="currentColor" stroke-linecap="round" stroke-linejoin="round"/>
<path d="M0.421875 7.64068H4.08825C4.12745 7.64069 4.16588 7.62981 4.19925 7.60925C4.23263 7.58869 4.25963 7.55926 4.27725 7.52424L5.24644 5.5853C5.26508 5.54673 5.29499 5.51472 5.33222 5.49352C5.36946 5.47233 5.41225 5.46293 5.45493 5.46659C5.49762 5.47025 5.53819 5.48679 5.57127 5.51401C5.60435 5.54124 5.62838 5.57787 5.64019 5.61905L6.58575 8.76905C6.59888 8.80964 6.62396 8.8453 6.65772 8.87137C6.69148 8.89744 6.73234 8.91269 6.77492 8.91513C6.8175 8.91756 6.85983 8.90706 6.89634 8.88501C6.93285 8.86295 6.96184 8.83038 6.9795 8.79155L7.86262 6.73055C7.87768 6.69571 7.90183 6.66555 7.93255 6.64325C7.96328 6.62095 7.99943 6.60734 8.03723 6.60383C8.07503 6.60032 8.11308 6.60705 8.14738 6.62331C8.18168 6.63957 8.21098 6.66476 8.23219 6.69624L8.85994 7.63787H13.0787" stroke="currentColor" stroke-linecap="round" stroke-linejoin="round"/>
</g>
<defs>
<clipPath id="clip0_317_1077">
<rect width="13.5" height="13.5" fill="white"/>
</clipPath>
</defs>
</svg>
