<svg width="16" height="16" viewBox="0 0 16 16" fill="none" xmlns="http://www.w3.org/2000/svg">
<g clip-path="url(#clip0_50_972)">
<path d="M11.3333 5.33334V7.33334" stroke="currentColor" stroke-miterlimit="10" stroke-linecap="round" stroke-linejoin="round"/>
<path d="M11.3333 0.533325C10.2 0.533325 9.33333 1.39999 9.33333 2.53333V3.33333C9.33333 4.46666 10.2 5.33333 11.3333 5.33333C12.4667 5.33333 13.3333 4.46666 13.3333 3.33333V2.53333C13.3333 1.39999 12.4 0.533325 11.3333 0.533325Z" stroke="currentColor" stroke-miterlimit="10" stroke-linecap="round" stroke-linejoin="round"/>
<path d="M4.66667 0.5V7.33333" stroke="currentColor" stroke-miterlimit="10" stroke-linecap="round" stroke-linejoin="round"/>
<path d="M6.66667 0.5V2.33333C6.66667 3.46667 5.80001 4.33333 4.66667 4.33333C3.53334 4.33333 2.66667 3.46667 2.66667 2.33333V0.5" stroke="currentColor" stroke-miterlimit="10" stroke-linecap="round" stroke-linejoin="round"/>
<path d="M2.66667 9.5V11.5M2.66667 11.5V13.5M2.66667 11.5L4.66667 9.5M2.66667 11.5L4.66667 13.5" stroke="currentColor" stroke-linecap="round" stroke-linejoin="round"/>
<path d="M7.33334 10.8333H7.00001C6.26363 10.8333 5.66667 11.4303 5.66667 12.1667C5.66667 12.9031 6.26363 13.5 7.00001 13.5H7.33334" stroke="currentColor" stroke-linecap="round" stroke-linejoin="round"/>
<path d="M8.66667 13.5L8.91667 12.8333M8.91667 12.8333L9.66667 10.8333L10.4167 12.8333M8.91667 12.8333H10.4167M10.6667 13.5L10.4167 12.8333" stroke="currentColor" stroke-linecap="round" stroke-linejoin="round"/>
<path d="M12 10.8333V13.5H13.3333" stroke="currentColor" stroke-linecap="round" stroke-linejoin="round"/>
<path d="M0.5 8.83333C0.5 8.09693 1.09695 7.5 1.83333 7.5H14.1667C14.9031 7.5 15.5 8.09693 15.5 8.83333V14.1667C15.5 14.9031 14.9031 15.5 14.1667 15.5H1.83333C1.09695 15.5 0.5 14.9031 0.5 14.1667V8.83333Z" stroke="currentColor" stroke-linejoin="round"/>
</g>
<defs>
<clipPath id="clip0_50_972">
<rect width="16" height="16" fill="white"/>
</clipPath>
</defs>
</svg>
