<svg width="15" height="14" viewBox="0 0 15 14" fill="none" xmlns="http://www.w3.org/2000/svg">
<g clip-path="url(#clip0_50_836)">
<path d="M5.96232 10.7257L5.41865 11.2241C4.92637 11.6753 4.25868 11.9288 3.56249 11.9288C2.86629 11.9288 2.19861 11.6753 1.70632 11.2241C1.21403 10.7728 0.937469 10.1607 0.937469 9.52257C0.937469 8.88438 1.21403 8.27234 1.70632 7.82108L4.49057 5.26832C4.95736 4.83945 5.58346 4.58777 6.24383 4.56354C6.90419 4.53931 7.55023 4.74431 8.05293 5.1376C8.55563 5.53089 8.87799 6.08352 8.95564 6.68515C9.03329 7.28677 8.86052 7.89311 8.47182 8.38307" stroke="currentColor" stroke-linecap="round" stroke-linejoin="round"/>
<path d="M9.14382 3.81013L9.58132 3.40909C10.0736 2.95782 10.7413 2.70431 11.4375 2.70431C12.1337 2.70431 12.8014 2.95782 13.2937 3.40909C13.7859 3.86035 14.0625 4.47239 14.0625 5.11057C14.0625 5.74875 13.7859 6.3608 13.2937 6.81206L10.5094 9.36429C10.0425 9.79297 9.41642 10.0445 8.75612 10.0685C8.09581 10.0926 7.4499 9.88754 6.94732 9.49422C6.44474 9.1009 6.12249 8.5483 6.0449 7.94673C5.96731 7.34517 6.14009 6.73891 6.52874 6.249" stroke="currentColor" stroke-linecap="round" stroke-linejoin="round"/>
</g>
<defs>
<clipPath id="clip0_50_836">
<rect width="14" height="12.8333" fill="white" transform="translate(0.5 0.833332)"/>
</clipPath>
</defs>
</svg>
