<svg width="20" height="20" viewBox="0 0 20 20" fill="none" xmlns="http://www.w3.org/2000/svg">
<path d="M9.99979 2.49998C8.61904 2.49998 7.49976 3.61927 7.49976 4.99998V8.33331C7.49976 9.71406 8.61904 10.8333 9.99979 10.8333C11.3805 10.8333 12.4998 9.71406 12.4998 8.33331V4.99998C12.4998 3.61927 11.3805 2.49998 9.99979 2.49998ZM9.99979 0.833313C12.301 0.833313 14.1665 2.6988 14.1665 4.99998V8.33331C14.1665 10.6345 12.301 12.5 9.99979 12.5C7.69857 12.5 5.83309 10.6345 5.83309 8.33331V4.99998C5.83309 2.6988 7.69857 0.833313 9.99979 0.833313ZM2.54553 9.16665H4.2255C4.62986 11.9936 7.06103 14.1666 9.99979 14.1666C12.9385 14.1666 15.3696 11.9936 15.774 9.16665H17.454C17.0697 12.643 14.3095 15.4032 10.8331 15.7876V19.1666H9.16646V15.7876C5.69007 15.4032 2.92982 12.643 2.54553 9.16665Z" fill="currentColor"/>
</svg>
