<svg width="25" height="25" viewBox="0 0 25 25" fill="none" xmlns="http://www.w3.org/2000/svg">
<path d="M11.5623 1.30209C8.02528 1.30209 5.28863 4.40212 5.72734 7.91184L5.81001 8.57314C5.93096 9.5408 5.5775 10.5074 4.86082 11.1687C3.37574 12.5391 2.96314 14.7203 3.84506 16.5385L3.95272 16.7604C4.77477 18.4551 6.49279 19.5313 8.37637 19.5313H16.9397C18.5644 19.5313 20.0765 18.7012 20.9489 17.3306C22.1802 15.3957 21.8541 12.8575 20.1736 11.2968L20.1279 11.2544C19.7804 10.9317 19.5126 10.5425 19.3354 10.1165C19.263 9.94258 19.2057 9.76252 19.1643 9.57842C19.0696 9.15747 18.6516 8.89298 18.2307 8.98768C17.8097 9.08237 17.5452 9.50039 17.6399 9.92134C17.7011 10.1935 17.7858 10.4597 17.8928 10.7168C18.1548 11.3465 18.5508 11.9222 19.0646 12.3993L19.1103 12.4418C20.2383 13.4893 20.4572 15.193 19.6307 16.4916C19.0452 17.4116 18.0302 17.9688 16.9397 17.9688H8.37637C7.0914 17.9688 5.91936 17.2346 5.35856 16.0785L5.2509 15.8565C4.66957 14.6581 4.94154 13.2203 5.92045 12.317C7.00771 11.3137 7.54394 9.84735 7.36044 8.37933L7.27778 7.71803C6.95563 5.14089 8.96512 2.86459 11.5623 2.86459H13.3362C14.1041 2.86459 14.8177 3.06238 15.4355 3.4064C15.8125 3.61632 16.2882 3.4809 16.4982 3.10393C16.7081 2.72697 16.5727 2.2512 16.1957 2.04129C15.3513 1.57106 14.3768 1.30209 13.3362 1.30209H11.5623Z" fill="currentColor"/>
<path d="M10.1907 21.4063C9.93178 21.0611 9.4421 20.9911 9.09692 21.25C8.75174 21.5089 8.68179 21.9986 8.94067 22.3438L9.25317 22.7604C10.9719 25.0521 14.4094 25.0521 16.1282 22.7604L16.4407 22.3438C16.6996 21.9986 16.6296 21.5089 16.2844 21.25C15.9392 20.9911 15.4496 21.0611 15.1907 21.4063L14.8782 21.8229C13.7844 23.2813 11.5969 23.2813 10.5032 21.8229L10.1907 21.4063Z" fill="currentColor"/>
<path d="M19.9824 6.25C19.9824 7.4006 19.0497 8.33334 17.8991 8.33334C16.7485 8.33334 15.8157 7.4006 15.8157 6.25C15.8157 5.09941 16.7485 4.16667 17.8991 4.16667C19.0497 4.16667 19.9824 5.09941 19.9824 6.25Z" fill="currentColor"/>
</svg>
