<svg width="16" height="16" viewBox="0 0 16 16" fill="none" xmlns="http://www.w3.org/2000/svg">
<g clip-path="url(#clip0_50_1026)">
<path d="M6.5 4.5H7.5C7.5 4.5 8.5 4.5 8.5 5.5V8.5C8.5 8.5 8.5 9.5 7.5 9.5H6.5C6.5 9.5 5.5 9.5 5.5 8.5V5.5C5.5 5.5 5.5 4.5 6.5 4.5Z" stroke="currentColor" stroke-linecap="round" stroke-linejoin="round"/>
<path d="M10 8.25C10 8.05109 10.079 7.86032 10.2197 7.71967C10.3603 7.57902 10.5511 7.5 10.75 7.5C10.9489 7.5 11.1397 7.57902 11.2803 7.71967C11.421 7.86032 11.5 8.05109 11.5 8.25C11.4996 8.49228 11.4171 8.72727 11.266 8.91667L10 10.5H11.5" stroke="currentColor" stroke-linecap="round" stroke-linejoin="round"/>
<path d="M8.5 0.500014C7.25253 0.498215 6.02731 0.830289 4.95149 1.46177C3.87566 2.09326 2.98843 3.00115 2.38186 4.09122C1.7753 5.18129 1.47151 6.41383 1.50201 7.66093C1.53251 8.90802 1.8962 10.1242 2.55533 11.1833L0.5 15.5L4.81667 13.444C5.73714 14.0165 6.778 14.3675 7.85722 14.4691C8.93644 14.5708 10.0245 14.4205 11.0357 14.0299C12.0469 13.6394 12.9536 13.0193 13.6843 12.2186C14.4151 11.4179 14.9498 10.4585 15.2465 9.41586C15.5432 8.37325 15.5937 7.27598 15.394 6.21053C15.1943 5.14508 14.7499 4.14057 14.0958 3.27615C13.4417 2.41173 12.5958 1.71103 11.6247 1.22928C10.6537 0.747525 9.584 0.497878 8.5 0.500014Z" stroke="currentColor" stroke-linecap="round" stroke-linejoin="round"/>
</g>
<defs>
<clipPath id="clip0_50_1026">
<rect width="16" height="16" fill="white"/>
</clipPath>
</defs>
</svg>
