<svg fill="currentColor" version="1.1" id="Capa_1" xmlns="http://www.w3.org/2000/svg" xmlns:xlink="http://www.w3.org/1999/xlink" 
	 width="40px" height="40px" viewBox="0 0 146.939 146.939"
	 xml:space="preserve">
<g>
	<path d="M142.643,42.277c-2.614-11.297-10.266-19.584-22.116-23.971c-7.925-2.938-27.176-5.565-35.603,4.459
		c-4.031-2.377-7.91-4.361-11.556-5.756C66.492,6.761,54.803,0,41.564,0C20.45,0,3.27,17.174,3.27,38.288
		c0,15.19,8.916,28.301,21.768,34.481c1.665,3.303,3.716,6.421,6.086,9.032c6.602,7.271,8.512,11.464,9.582,16.263
		c0.235,1.056,0.779,4.165,0.812,4.843c1.683,39.958,15.313,43.395,18.574,43.634c0.95,0.273,1.881,0.399,2.792,0.399
		c1.66,0,3.238-0.443,4.667-1.319c6.77-4.156,8.849-17.062,10.688-28.443c0.667-4.098,1.288-7.989,2.016-10.249
		c1.262-3.913,2.308-4.787,2.295-4.941c0.909,0.416,2.441,3.333,2.605,4.487c0.252,1.74,0.438,3.956,0.635,6.457
		c1.04,12.837,2.604,32.208,16.257,33.599c0.963,0.219,3.27,0.426,6.099-1.287c6.438-3.904,11.205-15.086,14.153-33.253l0.451-2.91
		c1.06-7.289,2.526-17.266,8.54-23.595C138.231,78.233,146.622,59.461,142.643,42.277z M8.874,38.274
		c0-18.025,14.663-32.685,32.69-32.685c18.02,0,32.679,14.66,32.679,32.685c0,18.022-14.659,32.684-32.679,32.684
		c-4.597,0-8.965-0.963-12.934-2.681c-0.287-0.214-0.604-0.366-0.946-0.455C16.589,62.594,8.874,51.33,8.874,38.274z M127.249,81.62
		c-7.245,7.619-8.923,19.064-10.033,26.65l-0.435,2.811c-3.391,20.899-8.446,27.207-11.155,29.122
		c-1.424,0.996-2.316,0.859-2.218,0.892c-0.209-0.07-0.42-0.115-0.635-0.125c-9.15-0.789-10.501-17.45-11.393-28.487
		c-0.209-2.648-0.405-5.005-0.668-6.817c-0.274-1.85-2.867-8.865-7.661-9.271c-5.062-0.393-7.382,6.523-8.127,8.811
		c-0.857,2.676-1.484,6.567-2.22,11.093c-1.401,8.656-3.513,21.745-8.089,24.563c-0.628,0.371-1.569,0.776-3.205,0.234
		c-0.297-0.104-0.588-0.104-0.919-0.125c-0.138,0-11.815-1.401-13.375-38.293c-0.056-1.287-0.733-4.915-0.941-5.822
		c-1.467-6.588-4.428-11.688-10.903-18.816c-0.652-0.714-1.218-1.551-1.818-2.339c2.614,0.569,5.325,0.882,8.105,0.882
		c21.104,0,38.281-17.175,38.281-38.288c0-4.698-0.892-9.185-2.449-13.349c6.57,3.347,13.781,8.222,21.53,14.581
		c0.515,0.426,1.149,0.634,1.767,0.634c0.816,0,1.615-0.347,2.175-1.026c0.985-1.193,0.809-2.96-0.383-3.945
		c-4.385-3.598-8.576-6.629-12.643-9.319c6.479-6.566,21.715-4.908,28.729-2.303c10.15,3.762,16.407,10.479,18.605,19.983
		C140.543,58.061,133.575,74.988,127.249,81.62z M19.15,41.075c-1.548,0-2.802-1.253-2.802-2.801c0-1.546,1.253-2.802,2.802-2.802
		h19.613V15.86c0-1.546,1.253-2.802,2.801-2.802c1.545,0,2.801,1.256,2.801,2.802v19.612h19.612c1.546,0,2.802,1.256,2.802,2.802
		c0,1.548-1.256,2.801-2.802,2.801H44.365v19.613c0,1.548-1.256,2.801-2.801,2.801c-1.548,0-2.801-1.253-2.801-2.801V41.075H19.15z"
		/>
</g>
</svg>