<svg width="10" height="10" viewBox="0 0 10 10" fill="none" xmlns="http://www.w3.org/2000/svg">
<path d="M6.16956 0.713867C6.58378 0.713867 6.91956 1.04965 6.91956 1.46387C6.91956 1.87808 7.25535 2.21387 7.66956 2.21387H7.92214C8.44124 2.21387 8.86975 2.61096 8.84988 3.12968C8.81519 4.03521 8.63897 5.46281 7.95248 6.71387C7.77136 7.04394 7.52537 7.37516 7.25219 7.69078C6.40366 8.67114 5.97939 9.16132 5.00006 9.16132C4.02073 9.16132 3.59646 8.67114 2.74793 7.69078C2.47475 7.37516 2.22876 7.04394 2.04764 6.71387C1.38171 5.50028 1.19593 4.21081 1.15372 3.37473C1.12762 2.85763 1.55543 2.46387 2.07319 2.46387H2.20556C2.68881 2.46387 3.08056 2.07212 3.08056 1.58887C3.08056 1.10562 3.47231 0.713867 3.95556 0.713867H6.16956Z" fill="white" stroke="#A6ACB6" stroke-width="0.5"/>
</svg>
