<svg width="18" height="18" viewBox="0 0 18 18" fill="none" xmlns="http://www.w3.org/2000/svg">
<path d="M6.46811 3.64186C6.7954 3.59002 7.0187 3.28268 6.96686 2.95539C6.91502 2.6281 6.60768 2.4048 6.28038 2.45663C4.31208 2.76838 2.76836 4.3121 2.45661 6.28041C2.40477 6.6077 2.62807 6.91505 2.95536 6.96688C3.28266 7.01872 3.59 6.79542 3.64184 6.46813C3.87226 5.01329 5.01327 3.87229 6.46811 3.64186Z" fill="currentColor"/>
<path fill-rule="evenodd" clip-rule="evenodd" d="M7.80001 0C3.49219 0 0 3.49219 0 7.80001C0 12.1078 3.49219 15.6 7.80001 15.6C12.1078 15.6 15.6 12.1078 15.6 7.80001C15.6 3.49219 12.1078 0 7.80001 0ZM1.2 7.80001C1.2 4.15493 4.15493 1.2 7.80001 1.2C11.4451 1.2 14.4 4.15493 14.4 7.80001C14.4 11.4451 11.4451 14.4 7.80001 14.4C4.15493 14.4 1.2 11.4451 1.2 7.80001Z" fill="currentColor"/>
<path d="M14.6243 13.7758C14.39 13.5415 14.0101 13.5415 13.7758 13.7758C13.5415 14.0101 13.5415 14.39 13.7758 14.6244L16.9757 17.8243C17.21 18.0586 17.5899 18.0586 17.8243 17.8243C18.0586 17.59 18.0586 17.2101 17.8243 16.9758L14.6243 13.7758Z" fill="currentColor"/>
</svg>
