<svg width="28" height="28" viewBox="0 0 28 28" fill="none" xmlns="http://www.w3.org/2000/svg">
<path d="M2.33447 23.3332V13.9998C2.33447 13.381 2.58031 12.7875 3.01789 12.3499C3.45547 11.9123 4.04897 11.6665 4.66781 11.6665H23.3345C23.9533 11.6665 24.5468 11.9123 24.9844 12.3499C25.422 12.7875 25.6678 13.381 25.6678 13.9998V23.3332" stroke="#7B62E5" stroke-linecap="round" stroke-linejoin="round"/>
<path d="M4.66553 11.6663V6.99959C4.66553 6.38075 4.91136 5.78726 5.34894 5.34968C5.78653 4.91209 6.38002 4.66626 6.99886 4.66626H20.9989C21.6177 4.66626 22.2112 4.91209 22.6488 5.34968C23.0864 5.78726 23.3322 6.38075 23.3322 6.99959V11.6663" stroke="#7B62E5" stroke-linecap="round" stroke-linejoin="round"/>
<path d="M14 4.66675V11.6667" stroke="#7B62E5" stroke-linecap="round" stroke-linejoin="round"/>
<path d="M2.33447 21H25.6678" stroke="#7B62E5" stroke-linecap="round" stroke-linejoin="round"/>
</svg>
