<svg width="26" height="26" viewBox="0 0 26 26" fill="none" xmlns="http://www.w3.org/2000/svg">
<path d="M21.9578 13.5598C22.1474 15.6681 21.6952 17.7844 20.6608 19.6313C19.6263 21.4781 18.0578 22.9691 16.161 23.9088C14.2642 24.8484 12.1277 25.1928 10.0317 24.8968C7.93569 24.6008 5.97811 23.6782 4.4157 22.25C2.8533 20.8218 1.75905 18.9547 1.27649 16.8937C0.793921 14.8326 0.945574 12.6738 1.71155 10.7005C2.47753 8.72714 3.82207 7.03138 5.5688 5.83565C7.31553 4.63993 9.38288 4.00006 11.4997 4C11.9208 4.00005 12.3416 4.02514 12.7597 4.07513" stroke="currentColor" stroke-width="1.4" stroke-linecap="round" stroke-linejoin="round"/>
<path d="M7 13L10 15.7257V22" stroke="currentColor" stroke-width="1.4" stroke-linecap="round" stroke-linejoin="round"/>
<path d="M13 7H16L13 13H16" stroke="currentColor" stroke-width="1.4" stroke-linecap="round" stroke-linejoin="round"/>
<path d="M19 1H25L19 7H25" stroke="currentColor" stroke-width="1.4" stroke-linecap="round" stroke-linejoin="round"/>
</svg>
