
<svg version="1.1" id="designs" xmlns="http://www.w3.org/2000/svg" xmlns:xlink="http://www.w3.org/1999/xlink" 
	 width="40px" height="40px" viewBox="0 0 32 32" xml:space="preserve">
<style type="text/css">
	.sketchy_een{fill:currentColor;}
</style>
<path class="sketchy_een" d="M27.806,23.328c-0.151,0.374-0.346,0.737-0.612,1.042c-0.438,0.503-1.011,0.878-1.645,1.087
	c-0.694,0.227-1.443,0.286-2.169,0.235c-0.032-0.002-0.058-0.02-0.09-0.025c-0.204,0.316-0.419,0.631-0.667,0.911
	c-0.272,0.303-0.563,0.589-0.847,0.882c-0.143,0.148-0.284,0.295-0.434,0.436c-0.16,0.154-0.34,0.284-0.514,0.42
	c-0.325,0.25-0.661,0.518-1.029,0.698c-0.389,0.19-0.79,0.371-1.205,0.502c-0.372,0.117-0.753,0.25-1.138,0.325
	c-0.432,0.086-0.88,0.166-1.324,0.159c-0.368-0.008-0.737-0.033-1.103-0.076c-0.422-0.051-0.853-0.115-1.255-0.256
	c-0.422-0.151-0.847-0.301-1.259-0.477c-0.354-0.149-0.682-0.35-1.009-0.546c-0.393-0.236-0.747-0.528-1.093-0.827
	c-0.301-0.262-0.544-0.575-0.823-0.857c-0.299-0.307-0.556-0.648-0.799-1c-0.24,0.05-0.482,0.09-0.723,0.116
	c-0.188,0.021-0.375,0.041-0.563,0.027c-0.448-0.039-0.901-0.103-1.341-0.205c-0.462-0.107-0.892-0.287-1.265-0.584
	c-0.174-0.141-0.321-0.329-0.436-0.522c-0.045-0.074-0.086-0.147-0.123-0.225c-0.053-0.115-0.139-0.295-0.162-0.426
	c-0.117-0.677-0.143-1.35,0.008-2.026c0.102-0.452,0.241-0.888,0.446-1.306c0.184-0.377,0.407-0.725,0.651-1.064
	c0.262-0.368,0.546-0.728,0.862-1.052c0.305-0.313,0.624-0.608,0.941-0.907c0.29-0.272,0.572-0.549,0.859-0.823
	c0.028-0.429,0.064-0.86,0.099-1.288c0.045-0.561,0.088-1.12,0.143-1.678c0.082-0.843,0.158-1.686,0.229-2.531
	c0.076-0.882,0.17-1.764,0.258-2.647c0.082-0.833,0.194-1.662,0.284-2.495c0.111-1.003,0.25-2.001,0.409-2.998
	c0.033-0.195,0.207-0.383,0.37-0.479c0.123-0.072,0.265-0.11,0.408-0.11c0.071,0,0.142,0.009,0.21,0.028
	c0.201,0.055,0.375,0.19,0.479,0.37c0.119,0.201,0.119,0.397,0.082,0.618c-0.106,0.626-0.218,1.25-0.312,1.878
	c-0.061,0.506-0.118,1.012-0.173,1.519c-0.184,1.73-0.303,3.467-0.42,5.203c-0.111,1.647-0.295,3.291-0.334,4.94
	c-0.008,0.362-0.226,0.678-0.541,0.813c-0.4,0.373-0.804,0.741-1.211,1.108c-0.397,0.354-0.761,0.725-1.096,1.135
	c-0.303,0.413-0.573,0.835-0.8,1.294c-0.127,0.343-0.217,0.686-0.281,1.047c-0.022,0.273-0.012,0.543,0.013,0.816
	c0.016,0.087,0.034,0.172,0.059,0.258C5.861,23.835,5.9,23.9,5.943,23.964c0.022,0.024,0.043,0.046,0.065,0.067
	c0.076,0.047,0.154,0.089,0.235,0.129c0.348,0.121,0.721,0.181,1.086,0.236c0.172,0.02,0.34,0.008,0.509,0.004
	c-0.107-0.383,0.064-0.826,0.408-1.028c0.444-0.26,0.976-0.088,1.246,0.328c0.209,0.319,0.415,0.64,0.61,0.968
	c0.149,0.253,0.297,0.504,0.466,0.743c0.238,0.272,0.491,0.53,0.727,0.804c0.24,0.278,0.529,0.512,0.814,0.747
	c0.436,0.317,0.903,0.612,1.393,0.832c0.554,0.226,1.105,0.439,1.698,0.537c0.505,0.057,1.006,0.081,1.512,0.034
	c0.713-0.115,1.414-0.34,2.083-0.612c0.454-0.206,0.868-0.477,1.267-0.774c0.278-0.231,0.527-0.494,0.779-0.755
	c0.251-0.258,0.494-0.52,0.718-0.802c0.266-0.362,0.503-0.734,0.688-1.144c0.173-0.442,0.29-0.894,0.364-1.365
	c0.029-0.196,0.207-0.386,0.37-0.483c0.122-0.072,0.263-0.109,0.405-0.109c0.072,0,0.145,0.009,0.215,0.029
	c0.201,0.055,0.377,0.19,0.481,0.37c0.117,0.199,0.123,0.399,0.082,0.62c-0.041,0.222-0.091,0.445-0.148,0.666
	c0.151,0.001,0.302,0.018,0.454,0.005c0.231-0.042,0.45-0.104,0.67-0.186c0.141-0.07,0.274-0.148,0.404-0.236
	c0.12-0.103,0.232-0.211,0.336-0.329c0.066-0.104,0.122-0.21,0.174-0.321c0.022-0.06,0.043-0.12,0.06-0.198
	c-0.072-0.359-0.206-0.708-0.336-1.049c-0.144-0.322-0.305-0.63-0.503-0.924c-0.388-0.454-0.837-0.845-1.273-1.255
	c-0.268-0.254-0.548-0.497-0.802-0.766c-0.434-0.456-1.124-0.895-1.201-1.571c-0.221-1.912-0.43-3.844-0.695-5.731
	c-0.094-0.667-0.207-1.331-0.32-1.995c-0.363-2.128-0.664-4.266-1.011-6.398c-0.037-0.231-0.037-0.434,0.086-0.643
	c0.108-0.186,0.289-0.325,0.497-0.383C20.627,2.01,20.701,2,20.775,2c0.147,0,0.294,0.039,0.422,0.114
	c0.17,0.098,0.354,0.297,0.385,0.497c0.276,1.819,0.539,3.639,0.771,5.463c0.107,0.725,0.248,1.442,0.368,2.164
	c0.129,0.767,0.222,1.538,0.322,2.308c0.09,0.622,0.191,1.241,0.269,1.865c0.088,0.694,0.165,1.416,0.276,2.117
	c0.027,0.02,0.185,0.142,0.236,0.189c0.176,0.164,0.342,0.333,0.503,0.512c0.145,0.161,0.362,0.347,0.522,0.492
	c0.28,0.254,0.512,0.465,0.784,0.727c0.28,0.272,0.575,0.53,0.827,0.829c0.303,0.356,0.579,0.728,0.772,1.156
	c0.192,0.424,0.356,0.85,0.491,1.296C27.882,22.258,28.023,22.794,27.806,23.328z M7.485,24.419
	c-0.032-0.005-0.064-0.009-0.097-0.013C7.359,24.401,7.33,24.398,7.3,24.394C7.362,24.402,7.423,24.41,7.485,24.419z M18.971,13.871
	c0.069,0.551,0.132,1.102,0.194,1.654c0.07,0.606,0.094,1.216,0.162,1.823c0.027,0.252,0.082,0.461,0.268,0.645
	c0.17,0.172,0.403,0.268,0.645,0.268c0.241,0,0.477-0.096,0.647-0.268c0.113-0.113,0.192-0.248,0.235-0.403
	c0.043-0.162,0.043-0.323,0-0.485c-0.145-0.874-0.287-1.748-0.44-2.618c-0.084-0.46-0.162-0.923-0.254-1.381
	c-0.086-0.439-0.185-0.872-0.256-1.314c-0.083-0.646-0.145-1.295-0.186-1.946c-0.027-0.421-0.336-0.778-0.78-0.778
	c-0.401,0-0.808,0.354-0.778,0.778c0.051,0.739,0.141,1.47,0.246,2.202C18.757,12.658,18.877,13.261,18.971,13.871z"/>
</svg>