<svg width="8" height="8" viewBox="0 0 8 8" fill="none" xmlns="http://www.w3.org/2000/svg">
<path d="M7.97913 2.8971C7.92676 2.73511 7.78308 2.62006 7.61309 2.60474L5.30408 2.39508L4.39103 0.258002C4.32371 0.101382 4.17039 0 4.00003 0C3.82968 0 3.67636 0.101382 3.60903 0.258368L2.69599 2.39508L0.386605 2.60474C0.216923 2.62042 0.0736091 2.73511 0.0209345 2.8971C-0.03174 3.05909 0.0169061 3.23677 0.145266 3.34877L1.89061 4.87945L1.37595 7.14653C1.33829 7.31322 1.40299 7.48553 1.5413 7.58551C1.61564 7.63922 1.70261 7.66656 1.79032 7.66656C1.86595 7.66656 1.94096 7.64618 2.00829 7.60589L4.00003 6.4155L5.99105 7.60589C6.13674 7.69354 6.3204 7.68554 6.4584 7.58551C6.59677 7.48522 6.66141 7.31286 6.62375 7.14653L6.10909 4.87945L7.85443 3.34908C7.98279 3.23677 8.03181 3.0594 7.97913 2.8971Z" fill="#FFC107"/>
</svg>