<svg width="18" height="18" viewBox="0 0 18 18" fill="none" xmlns="http://www.w3.org/2000/svg">
<rect width="18" height="18" rx="3" fill="#A6ACB6"/>
<path d="M5.14294 8.57101C5.14294 6.96398 5.14294 6.16047 5.55219 5.59718C5.68436 5.41527 5.84434 5.25529 6.02626 5.12312C6.15574 5.02905 6.29791 4.9566 6.45961 4.9008C7.00139 4.71387 7.76245 4.71387 9.00009 4.71387C10.4147 4.71387 11.2067 4.71387 11.7603 4.99302C11.8356 5.03099 11.9065 5.07412 11.9739 5.12312C12.1558 5.25529 12.3158 5.41527 12.448 5.59718C12.8572 6.16047 12.8572 6.96398 12.8572 8.57101V9.42815C12.8572 11.0352 12.8572 11.8387 12.448 12.402C12.3158 12.5839 12.1558 12.7439 11.9739 12.876C11.4106 13.2853 10.6071 13.2853 9.00009 13.2853C7.39306 13.2853 6.58954 13.2853 6.02626 12.876C5.84434 12.7439 5.68436 12.5839 5.55219 12.402C5.14294 11.8387 5.14294 11.0352 5.14294 9.42815V8.57101Z" fill="white"/>
<path d="M7.2858 7.89244C7.14773 7.89244 7.0358 8.00437 7.0358 8.14244C7.0358 8.28051 7.14773 8.39244 7.2858 8.39244V7.89244ZM10.7144 8.39244C10.8524 8.39244 10.9644 8.28051 10.9644 8.14244C10.9644 8.00437 10.8524 7.89244 10.7144 7.89244V8.39244ZM7.2858 9.60672C7.14773 9.60672 7.0358 9.71865 7.0358 9.85672C7.0358 9.9948 7.14773 10.1067 7.2858 10.1067V9.60672ZM10.7144 10.1067C10.8524 10.1067 10.9644 9.9948 10.9644 9.85672C10.9644 9.71865 10.8524 9.60672 10.7144 9.60672V10.1067ZM7.2858 11.321C7.14773 11.321 7.0358 11.4329 7.0358 11.571C7.0358 11.7091 7.14773 11.821 7.2858 11.821V11.321ZM8.57152 11.821C8.70959 11.821 8.82152 11.7091 8.82152 11.571C8.82152 11.4329 8.70959 11.321 8.57152 11.321V11.821ZM6.02626 12.876L6.17321 12.6738L6.02626 12.876ZM5.55219 12.402L5.75445 12.255L5.55219 12.402ZM12.448 12.402L12.2457 12.255L12.448 12.402ZM11.9739 12.876L11.827 12.6738L11.9739 12.876ZM11.9739 5.12312L12.1209 4.92086L11.9739 5.12312ZM12.448 5.59718L12.2457 5.74413L12.448 5.59718ZM6.02626 5.12312L6.17321 5.32537L6.02626 5.12312ZM5.55219 5.59718L5.75445 5.74413L5.55219 5.59718ZM9.49129 6.68329L9.5304 6.93021V6.93021L9.49129 6.68329ZM8.82086 6.68329L8.78175 6.93021V6.93021L8.82086 6.68329ZM7.2858 8.39244H10.7144V7.89244H7.2858V8.39244ZM7.2858 10.1067H10.7144V9.60672H7.2858V10.1067ZM7.2858 11.821H8.57152V11.321H7.2858V11.821ZM12.6072 8.57101V9.42815H13.1072V8.57101H12.6072ZM5.39294 9.42815V8.57101H4.89294V9.42815H5.39294ZM9.00009 13.0353C8.191 13.0353 7.60427 13.035 7.1487 12.9856C6.6978 12.9367 6.40513 12.8423 6.17321 12.6738L5.87932 13.0783C6.21068 13.319 6.6014 13.4292 7.09484 13.4827C7.5836 13.5356 8.20214 13.5353 9.00009 13.5353V13.0353ZM4.89294 9.42815C4.89294 10.2261 4.8926 10.8446 4.94555 11.3334C4.99902 11.8268 5.10919 12.2176 5.34994 12.5489L5.75445 12.255C5.58595 12.0231 5.4915 11.7304 5.44265 11.2795C5.39329 10.824 5.39294 10.2372 5.39294 9.42815H4.89294ZM6.17321 12.6738C6.01251 12.557 5.8712 12.4157 5.75445 12.255L5.34994 12.5489C5.49753 12.7521 5.67617 12.9307 5.87932 13.0783L6.17321 12.6738ZM12.6072 9.42815C12.6072 10.2372 12.6069 10.824 12.5575 11.2795C12.5087 11.7304 12.4142 12.0231 12.2457 12.255L12.6502 12.5489C12.891 12.2176 13.0012 11.8268 13.0546 11.3334C13.1076 10.8446 13.1072 10.2261 13.1072 9.42815H12.6072ZM9.00009 13.5353C9.79803 13.5353 10.4166 13.5356 10.9053 13.4827C11.3988 13.4292 11.7895 13.319 12.1209 13.0783L11.827 12.6738C11.595 12.8423 11.3024 12.9367 10.8515 12.9856C10.3959 13.035 9.80917 13.0353 9.00009 13.0353V13.5353ZM12.2457 12.255C12.129 12.4157 11.9877 12.557 11.827 12.6738L12.1209 13.0783C12.324 12.9307 12.5026 12.7521 12.6502 12.5489L12.2457 12.255ZM13.1072 8.57101C13.1072 7.77306 13.1076 7.15452 13.0546 6.66576C13.0012 6.17233 12.891 5.7816 12.6502 5.45024L12.2457 5.74413C12.4142 5.97605 12.5087 6.26872 12.5575 6.71962C12.6069 7.1752 12.6072 7.76193 12.6072 8.57101H13.1072ZM11.827 5.32537C11.9877 5.44212 12.129 5.58344 12.2457 5.74413L12.6502 5.45024C12.5026 5.2471 12.324 5.06845 12.1209 4.92086L11.827 5.32537ZM5.39294 8.57101C5.39294 7.76193 5.39329 7.1752 5.44265 6.71962C5.4915 6.26872 5.58595 5.97605 5.75445 5.74413L5.34994 5.45024C5.10919 5.7816 4.99902 6.17233 4.94555 6.66576C4.8926 7.15452 4.89294 7.77306 4.89294 8.57101H5.39294ZM5.87932 4.92086C5.67617 5.06845 5.49753 5.2471 5.34994 5.45024L5.75445 5.74413C5.8712 5.58344 6.01251 5.44212 6.17321 5.32537L5.87932 4.92086ZM9.45218 6.43636C9.256 6.46744 9.05615 6.46744 8.85996 6.43636L8.78175 6.93021C9.02975 6.96949 9.28239 6.96949 9.5304 6.93021L9.45218 6.43636ZM11.5836 4.81618C11.0529 5.34644 10.6624 5.73115 10.3238 5.9978C9.98897 6.26151 9.72491 6.39317 9.45218 6.43636L9.5304 6.93021C9.92005 6.86849 10.2629 6.6822 10.6332 6.39061C10.9997 6.10194 11.4125 5.69398 11.937 5.16986L11.5836 4.81618ZM9.00009 4.96387C9.71117 4.96387 10.2515 4.96404 10.6835 4.99799C11.1147 5.03188 11.4134 5.09809 11.6477 5.21624L11.8729 4.76979C11.5536 4.60879 11.1795 4.53543 10.7227 4.49953C10.2666 4.46369 9.70362 4.46387 9.00009 4.46387V4.96387ZM11.6477 5.21624C11.7112 5.24827 11.7706 5.28442 11.827 5.32537L12.1209 4.92086C12.0423 4.86381 11.9599 4.8137 11.8729 4.76979L11.6477 5.21624ZM6.28284 5.07759C6.837 5.63172 7.26798 6.06188 7.6469 6.36515C8.0295 6.67137 8.38089 6.86672 8.78175 6.93021L8.85996 6.43636C8.57941 6.39193 8.30806 6.2539 7.95933 5.97478C7.60692 5.69272 7.19799 5.28561 6.63638 4.72402L6.28284 5.07759ZM9.00009 4.46387C8.38381 4.46387 7.8761 4.46378 7.45477 4.48763C7.03369 4.51148 6.68118 4.55989 6.37807 4.66448L6.54115 5.13713C6.77982 5.05478 7.07874 5.00973 7.48304 4.98683C7.88709 4.96396 8.37873 4.96387 9.00009 4.96387V4.46387ZM6.37807 4.66448C6.19527 4.72755 6.03064 4.81092 5.87932 4.92086L6.17321 5.32537C6.28084 5.24717 6.40055 5.18565 6.54115 5.13713L6.37807 4.66448Z" fill="#A6ACB6"/>
</svg>
