<svg width="10" height="10" viewBox="0 0 10 10" fill="none" xmlns="http://www.w3.org/2000/svg">
<path d="M1.14294 4.57101C1.14294 2.96398 1.14294 2.16047 1.55219 1.59718C1.68436 1.41527 1.84434 1.25529 2.02626 1.12312C2.15574 1.02905 2.29791 0.956599 2.45961 0.900805C3.00139 0.713867 3.76245 0.713867 5.00009 0.713867C6.41471 0.713867 7.20671 0.713867 7.76029 0.993019C7.83559 1.03099 7.90647 1.07412 7.97391 1.12312C8.15583 1.25529 8.31581 1.41527 8.44798 1.59718C8.85723 2.16047 8.85723 2.96398 8.85723 4.57101V5.42815C8.85723 7.03518 8.85723 7.8387 8.44798 8.40198C8.31581 8.5839 8.15583 8.74388 7.97391 8.87605C7.41063 9.2853 6.60711 9.2853 5.00009 9.2853C3.39306 9.2853 2.58954 9.2853 2.02626 8.87605C1.84434 8.74388 1.68436 8.5839 1.55219 8.40198C1.14294 7.8387 1.14294 7.03518 1.14294 5.42815V4.57101Z" fill="white"/>
<path d="M3.2858 3.89244C3.14773 3.89244 3.0358 4.00437 3.0358 4.14244C3.0358 4.28051 3.14773 4.39244 3.2858 4.39244V3.89244ZM6.71437 4.39244C6.85244 4.39244 6.96437 4.28051 6.96437 4.14244C6.96437 4.00437 6.85244 3.89244 6.71437 3.89244V4.39244ZM3.2858 5.60672C3.14773 5.60672 3.0358 5.71865 3.0358 5.85672C3.0358 5.9948 3.14773 6.10672 3.2858 6.10672V5.60672ZM6.71437 6.10672C6.85244 6.10672 6.96437 5.9948 6.96437 5.85672C6.96437 5.71865 6.85244 5.60672 6.71437 5.60672V6.10672ZM3.2858 7.32101C3.14773 7.32101 3.0358 7.43294 3.0358 7.57101C3.0358 7.70908 3.14773 7.82101 3.2858 7.82101V7.32101ZM4.57152 7.82101C4.70959 7.82101 4.82152 7.70908 4.82152 7.57101C4.82152 7.43294 4.70959 7.32101 4.57152 7.32101V7.82101ZM2.02626 8.87605L2.17321 8.67379L2.02626 8.87605ZM1.55219 8.40198L1.75445 8.25503L1.55219 8.40198ZM8.44798 8.40198L8.24573 8.25503L8.44798 8.40198ZM7.97391 8.87605L7.82697 8.67379L7.97391 8.87605ZM7.97391 1.12312L8.12086 0.920862L7.97391 1.12312ZM8.44798 1.59718L8.24573 1.74413L8.44798 1.59718ZM2.02626 1.12312L2.17321 1.32537L2.02626 1.12312ZM1.55219 1.59718L1.75445 1.74413L1.55219 1.59718ZM5.49129 2.68329L5.5304 2.93021V2.93021L5.49129 2.68329ZM4.82086 2.68329L4.78175 2.93021V2.93021L4.82086 2.68329ZM3.2858 4.39244H6.71437V3.89244H3.2858V4.39244ZM3.2858 6.10672H6.71437V5.60672H3.2858V6.10672ZM3.2858 7.82101H4.57152V7.32101H3.2858V7.82101ZM8.60723 4.57101V5.42815H9.10723V4.57101H8.60723ZM1.39294 5.42815V4.57101H0.892944V5.42815H1.39294ZM5.00009 9.0353C4.191 9.0353 3.60427 9.03495 3.1487 8.98559C2.6978 8.93674 2.40513 8.84229 2.17321 8.67379L1.87932 9.0783C2.21068 9.31905 2.6014 9.42922 3.09484 9.48269C3.5836 9.53564 4.20214 9.5353 5.00009 9.5353V9.0353ZM0.892944 5.42815C0.892944 6.2261 0.892601 6.84464 0.945555 7.3334C0.999016 7.82684 1.10919 8.21756 1.34994 8.54892L1.75445 8.25503C1.58595 8.02311 1.4915 7.73044 1.44265 7.27954C1.39329 6.82397 1.39294 6.23724 1.39294 5.42815H0.892944ZM2.17321 8.67379C2.01251 8.55704 1.8712 8.41573 1.75445 8.25503L1.34994 8.54892C1.49753 8.75207 1.67617 8.93071 1.87932 9.0783L2.17321 8.67379ZM8.60723 5.42815C8.60723 6.23724 8.60689 6.82397 8.55753 7.27954C8.50868 7.73044 8.41423 8.02311 8.24573 8.25503L8.65023 8.54892C8.89098 8.21756 9.00116 7.82684 9.05462 7.3334C9.10757 6.84464 9.10723 6.2261 9.10723 5.42815H8.60723ZM5.00009 9.5353C5.79803 9.5353 6.41657 9.53564 6.90533 9.48269C7.39877 9.42922 7.7895 9.31905 8.12086 9.0783L7.82697 8.67379C7.59504 8.84229 7.30237 8.93674 6.85148 8.98559C6.3959 9.03495 5.80917 9.0353 5.00009 9.0353V9.5353ZM8.24573 8.25503C8.12898 8.41573 7.98766 8.55704 7.82697 8.67379L8.12086 9.0783C8.324 8.93071 8.50264 8.75207 8.65023 8.54892L8.24573 8.25503ZM9.10723 4.57101C9.10723 3.77306 9.10757 3.15452 9.05462 2.66576C9.00116 2.17233 8.89098 1.7816 8.65023 1.45024L8.24573 1.74413C8.41423 1.97605 8.50868 2.26872 8.55753 2.71962C8.60689 3.1752 8.60723 3.76193 8.60723 4.57101H9.10723ZM7.82697 1.32537C7.98766 1.44212 8.12898 1.58344 8.24573 1.74413L8.65023 1.45024C8.50264 1.2471 8.324 1.06845 8.12086 0.920862L7.82697 1.32537ZM1.39294 4.57101C1.39294 3.76193 1.39329 3.1752 1.44265 2.71962C1.4915 2.26872 1.58595 1.97605 1.75445 1.74413L1.34994 1.45024C1.10919 1.7816 0.999016 2.17233 0.945555 2.66576C0.892601 3.15452 0.892944 3.77306 0.892944 4.57101H1.39294ZM1.87932 0.920862C1.67617 1.06845 1.49753 1.2471 1.34994 1.45024L1.75445 1.74413C1.8712 1.58344 2.01251 1.44212 2.17321 1.32537L1.87932 0.920862ZM5.45218 2.43636C5.256 2.46744 5.05615 2.46744 4.85996 2.43636L4.78175 2.93021C5.02975 2.96949 5.28239 2.96949 5.5304 2.93021L5.45218 2.43636ZM7.58358 0.816179C7.05294 1.34644 6.66242 1.73115 6.32383 1.9978C5.98897 2.26151 5.72491 2.39317 5.45218 2.43636L5.5304 2.93021C5.92005 2.86849 6.26292 2.6822 6.63318 2.39061C6.99972 2.10194 7.41251 1.69398 7.93701 1.16986L7.58358 0.816179ZM5.00009 0.963867C5.71117 0.963867 6.25149 0.964043 6.68349 0.997993C7.11467 1.03188 7.41342 1.09809 7.64773 1.21624L7.87286 0.769793C7.55357 0.608792 7.17954 0.535433 6.72266 0.49953C6.26662 0.463691 5.70362 0.463867 5.00009 0.463867V0.963867ZM7.64773 1.21624C7.71124 1.24827 7.77061 1.28442 7.82697 1.32537L8.12086 0.920862C8.04234 0.863813 7.95993 0.813701 7.87286 0.769793L7.64773 1.21624ZM2.28284 1.07759C2.837 1.63172 3.26798 2.06188 3.6469 2.36515C4.0295 2.67137 4.38089 2.86672 4.78175 2.93021L4.85996 2.43636C4.57941 2.39193 4.30806 2.2539 3.95933 1.97478C3.60692 1.69272 3.19799 1.28561 2.63638 0.724024L2.28284 1.07759ZM5.00009 0.463867C4.38381 0.463867 3.8761 0.463778 3.45477 0.487634C3.03369 0.511477 2.68118 0.559891 2.37807 0.664477L2.54115 1.13713C2.77982 1.05478 3.07874 1.00973 3.48304 0.986835C3.88709 0.963956 4.37873 0.963867 5.00009 0.963867V0.463867ZM2.37807 0.664477C2.19527 0.727551 2.03064 0.810918 1.87932 0.920862L2.17321 1.32537C2.28084 1.24717 2.40055 1.18565 2.54115 1.13713L2.37807 0.664477Z" fill="#A6ACB6"/>
</svg>
