<svg version="1.1" id="designs" xmlns="http://www.w3.org/2000/svg" xmlns:xlink="http://www.w3.org/1999/xlink" width="64px" height="64px" viewBox="0 0 32 32" xml:space="preserve" fill="currentColor">

<g id="SVGRepo_bgCarrier" stroke-width="0"/>

<g id="SVGRepo_tracerCarrier" stroke-linecap="round" stroke-linejoin="round"/>

<g id="SVGRepo_iconCarrier"> <style type="text/css"> .scienceandfiction_een{fill:currentColor;} .scienceandfiction_twee{fill:currentColor;} </style> <path class="scienceandfiction_twee" d="M15,5v9h-1V5c0-0.827-0.673-1.5-1.5-1.5S11,4.173,11,5h-1c0-1.378,1.122-2.5,2.5-2.5 S15,3.622,15,5z M14,16h1v-1h-1V16z M10.5,6.5C9.122,6.5,8,7.622,8,9h1c0-0.827,0.673-1.5,1.5-1.5S12,8.173,12,9v7h1V9 C13,7.622,11.878,6.5,10.5,6.5z M22,3h-1v1h1V3z M10,1H9v1h1V1z M17,2h-1v1h1V2z M8,4H7v1h1V4z M20.5,9.5 c-1.379,0-2.5,1.122-2.5,2.5v4h1v-4c0-0.827,0.673-1.5,1.5-1.5S22,11.173,22,12h1C23,10.622,21.879,9.5,20.5,9.5z M23,7v1h1V7H23z M18,21h1v-3.5h-1V21z M18,23h1v-1h-1V23z M16,23h1v-5.5h-1V23z M20,7h1c0-1.378-1.121-2.5-2.5-2.5S16,5.622,16,7v9h1V7 c0-0.827,0.673-1.5,1.5-1.5S20,6.173,20,7z M16,25h1v-1h-1V25z"/> <path class="scienceandfiction_een" d="M19.295,18l4.286,12H7.419l4.286-12H19.295z M20,17h-9L6,31h19L20,17L20,17z"/> </g>

</svg>