<svg width="23" height="23" viewBox="0 0 23 23" fill="none" xmlns="http://www.w3.org/2000/svg">
<path fill-rule="evenodd" clip-rule="evenodd" d="M11.4999 3.42709C8.76726 3.42709 6.552 5.64234 6.552 8.375C6.552 11.1077 8.76726 13.3229 11.4999 13.3229C14.2326 13.3229 16.4478 11.1077 16.4478 8.375C16.4478 5.64234 14.2326 3.42709 11.4999 3.42709ZM8.1145 8.375C8.1145 6.50529 9.6302 4.98959 11.4999 4.98959C13.3696 4.98959 14.8853 6.50529 14.8853 8.375C14.8853 10.2447 13.3696 11.7604 11.4999 11.7604C9.6302 11.7604 8.1145 10.2447 8.1145 8.375Z" fill="currentColor"/>
<path fill-rule="evenodd" clip-rule="evenodd" d="M11.4999 0.302086C5.31548 0.302086 0.302002 5.31556 0.302002 11.5C0.302002 14.6755 1.62481 17.5433 3.74732 19.5803C5.75859 21.5104 8.4914 22.6979 11.4999 22.6979C14.5084 22.6979 17.2412 21.5104 19.2525 19.5803C21.375 17.5433 22.6978 14.6755 22.6978 11.5C22.6978 5.31556 17.6844 0.302086 11.4999 0.302086ZM1.8645 11.5C1.8645 6.17851 6.17842 1.86459 11.4999 1.86459C16.8214 1.86459 21.1353 6.17851 21.1353 11.5C21.1353 13.7862 20.3398 15.8858 19.0092 17.5382C18.1821 15.9612 16.5297 14.8854 14.6249 14.8854H8.37492C6.47016 14.8854 4.81776 15.9612 3.99064 17.5382C2.66004 15.8858 1.8645 13.7862 1.8645 11.5ZM14.6249 16.4479C16.1185 16.4479 17.3875 17.4158 17.8365 18.7589C16.1421 20.2394 13.9264 21.1354 11.4999 21.1354C9.07348 21.1354 6.85776 20.2394 5.16332 18.7589C5.61232 17.4158 6.8813 16.4479 8.37492 16.4479H14.6249Z" fill="currentColor"/>
</svg>
