<svg width="16" height="16" viewBox="0 0 16 16" fill="none" xmlns="http://www.w3.org/2000/svg">
<path d="M14.3733 7.15988L13.4667 6.10654C13.2933 5.90654 13.1533 5.53321 13.1533 5.26654V4.13321C13.1533 3.42654 12.5733 2.84654 11.8667 2.84654H10.7333C10.4733 2.84654 10.0933 2.70654 9.89334 2.53321L8.84 1.62654C8.38 1.23321 7.62667 1.23321 7.16 1.62654L6.11334 2.53988C5.91334 2.70654 5.53334 2.84654 5.27334 2.84654H4.12C3.41334 2.84654 2.83334 3.42654 2.83334 4.13321V5.27321C2.83334 5.53321 2.69334 5.90654 2.52667 6.10654L1.62667 7.16654C1.24 7.62654 1.24 8.37321 1.62667 8.83321L2.52667 9.89321C2.69334 10.0932 2.83334 10.4665 2.83334 10.7265V11.8665C2.83334 12.5732 3.41334 13.1532 4.12 13.1532H5.27334C5.53334 13.1532 5.91334 13.2932 6.11334 13.4665L7.16667 14.3732C7.62667 14.7665 8.38 14.7665 8.84667 14.3732L9.9 13.4665C10.1 13.2932 10.4733 13.1532 10.74 13.1532H11.8733C12.58 13.1532 13.16 12.5732 13.16 11.8665V10.7332C13.16 10.4732 13.3 10.0932 13.4733 9.89321L14.38 8.83988C14.7667 8.37988 14.7667 7.61988 14.3733 7.15988ZM10.7733 6.73988L7.55334 9.95988C7.46 10.0532 7.33334 10.1065 7.2 10.1065C7.06667 10.1065 6.94 10.0532 6.84667 9.95988L5.23334 8.34654C5.04 8.15321 5.04 7.83321 5.23334 7.63988C5.42667 7.44654 5.74667 7.44654 5.94 7.63988L7.2 8.89988L10.0667 6.03321C10.26 5.83988 10.58 5.83988 10.7733 6.03321C10.9667 6.22654 10.9667 6.54654 10.7733 6.73988Z" fill="currentColor"/>
</svg>
